<?xml version="1.0" encoding="UTF-8"?>
<svg width="64" height="64" viewBox="0 0 64 64" fill="none" xmlns="http://www.w3.org/2000/svg">
<g id="Group" transform="translate(32 32) scale(0.9964) translate(-34.40 -32.80)">
<path id="Vector" fill-rule="evenodd" clip-rule="evenodd" d="M32.0003 5.3999L31.8003 5.5999H30.6003L30.4003 5.7999L28.4003 5.9999L26.2003 6.7999H25.6003L21.4003 8.5999L16.6003 11.7999L14.8003 13.3999L12.8003 15.5999L10.4003 18.9999L8.80029 22.1999L8.60029 23.1999L7.60029 25.5999L7.20029 28.1999L7.00029 28.3999V29.7999L6.80029 29.9999V35.7999L7.00029 35.9999L7.20029 38.3999L8.00029 40.7999V41.3999L9.80029 45.5999L13.0003 50.3999L16.6003 53.9999L18.4003 55.3999L19.0003 55.5999L21.0003 56.9999L25.8003 58.9999H26.4003L28.2003 59.5999H29.0003L29.2003 59.7999H30.2003L30.4003 59.9999L36.2003 60.1999L36.4003 59.9999H38.0003L38.2003 59.7999H39.2003L39.4003 59.5999L41.0003 59.3999L45.6003 57.7999L50.2003 55.1999L53.0003 52.9999L55.0003 50.9999L58.0003 46.9999L60.2003 42.5999L61.2003 39.5999L61.6003 36.9999L61.8003 36.7999L62.0003 30.1999L61.8003 29.9999V28.3999L61.6003 28.1999V27.1999L61.4003 26.9999L61.2003 25.3999L59.0003 19.7999L57.0003 16.5999L55.6003 14.7999L51.4003 10.7999L48.4003 8.7999L46.4003 7.7999L42.0003 6.1999L40.4003 5.9999L40.2003 5.7999H39.2003L39.0003 5.5999H37.8003L37.6003 5.3999H32.0003ZM32.6003 7.3999H37.0003L37.2003 7.5999H38.8003L39.0003 7.7999L41.6003 8.1999L44.0003 8.9999L47.0003 10.3999L50.8003 12.9999L54.4003 16.5999L57.2003 20.7999L59.0003 25.1999L59.4003 27.5999L59.6003 27.7999V28.7999L59.8003 28.9999V30.5999L60.0003 30.7999L59.8003 35.9999L59.6003 36.1999L59.4003 38.1999L58.6003 40.9999L57.0003 44.5999L55.8003 46.5999L53.8003 49.1999L51.2003 51.7999L48.6003 53.7999L44.2003 56.1999L43.2003 56.3999L41.4003 57.1999H40.8003L39.0003 57.7999L36.0003 57.9999L35.8003 58.1999L30.6003 57.9999L30.4003 57.7999L28.4003 57.5999L25.0003 56.5999L22.0003 55.1999L20.0003 53.9999L17.0003 51.5999L13.2003 47.1999L11.2003 43.7999V43.3999L10.6003 42.3999L9.80029 40.1999V39.5999L9.20029 37.7999V36.7999L9.00029 36.5999V35.1999L8.80029 34.9999V30.5999L9.00029 30.3999V28.9999L9.20029 28.7999V27.9999L10.4003 23.7999L12.4003 19.7999L15.6003 15.5999L19.2003 12.3999L23.2003 9.9999H23.6003L24.6003 9.3999L28.0003 8.1999L29.6003 7.9999L29.8003 7.7999H30.8003L31.0003 7.5999H32.4003L32.6003 7.3999Z" fill="black"/>
<path id="Vector_2" fill-rule="evenodd" clip-rule="evenodd" d="M18.6003 29.3999L19.2003 30.3999H28.0003L28.6003 29.7999V28.9999L28.0003 28.3999H19.4003L18.8003 28.7999L18.6003 29.3999Z" fill="black"/>
<path id="Vector_3" fill-rule="evenodd" clip-rule="evenodd" d="M40.4003 28.9999V29.9999L40.8003 30.3999H49.6003L50.0003 30.1999L50.2003 29.7999V28.9999L49.6003 28.3999H41.0003L40.4003 28.9999Z" fill="black"/>
<path id="Vector_4" fill-rule="evenodd" clip-rule="evenodd" d="M24.2003 39.3998V40.3998L24.6003 41.1998L26.8003 43.7998L28.2003 44.7998L30.2003 45.7998L31.4003 46.1998H32.2003L32.4003 46.3998H36.2003L39.0003 45.5998L40.2003 44.9998L42.8003 42.9998L43.8003 41.7998L44.8003 39.9998V39.5998L44.4003 38.9998L43.4003 38.7998L42.8003 39.3998L42.0003 40.7998L40.4003 42.3998L38.0003 43.7998L36.8003 44.1998H36.0003L35.8003 44.3998H32.8003L32.6003 44.1998H31.8003L30.6003 43.7998L28.6003 42.5998L26.6003 40.5998L26.2003 39.5998L25.4003 38.7998H25.0003L24.2003 39.3998Z" fill="black"/>
</g>
</svg>
