<?xml version="1.0" encoding="UTF-8"?>
<svg width="64" height="64" viewBox="0 0 64 64" fill="none" xmlns="http://www.w3.org/2000/svg">
<g id="Group" transform="translate(32 32) scale(0.9964) translate(-32.40 -33.90)">
<path id="Vector" fill-rule="evenodd" clip-rule="evenodd" d="M29.6003 6.80029L29.4003 7.00029H28.2003L28.0003 7.20029H27.0003L26.8003 7.40029L24.6003 7.80029L21.2003 9.00029L18.4003 10.4003L16.4003 11.6003L13.6003 13.8003L10.4003 17.2003L7.40029 22.0003V22.4003L6.80029 23.4003L5.60029 26.8003L5.20029 29.4003L5.00029 29.6003V31.0003L4.80029 31.2003V36.8003L5.00029 37.0003V38.2003L5.20029 38.4003V39.2003L5.40029 39.4003L5.80029 41.6003L7.40029 45.6003L10.4003 50.4003L14.4003 54.6003L18.4003 57.4003L21.2003 58.8003H21.6003L23.8003 59.8003H24.4003L26.2003 60.4003H27.0003L27.2003 60.6003H28.4003L28.6003 60.8003L34.2003 61.0003L34.4003 60.8003H36.0003L36.2003 60.6003L39.2003 60.2003L42.8003 59.0003L45.4003 57.8003L45.8003 57.4003L47.8003 56.4003L50.2003 54.6003L53.8003 51.0003L55.6003 48.6003L56.6003 46.6003L57.0003 46.2003L59.0003 41.2003L59.4003 38.8003L59.6003 38.6003V37.6003L59.8003 37.4003L60.0003 32.2003L59.8003 32.0003V30.2003L59.6003 30.0003L59.4003 27.8003L58.0003 23.4003L56.4003 20.2003L55.0003 18.0003L53.6003 16.2003L50.6003 13.2003L46.6003 10.4003L43.4003 8.80029L40.6003 7.80029H40.0003L38.2003 7.20029L35.8003 7.00029L35.6003 6.80029H29.6003ZM30.0003 8.80029H35.2003L35.4003 9.00029H36.8003L37.0003 9.20029L39.6003 9.60029L42.0003 10.4003L43.4003 11.2003H43.8003L48.0003 13.8003L52.0003 17.6003L54.8003 21.6003L56.4003 25.0003L57.0003 26.8003L57.2003 28.4003L57.6003 29.4003V30.6003L57.8003 30.8003V36.8003L57.6003 37.0003V38.0003L57.4003 38.2003V39.0003L56.8003 40.6003V41.2003L54.6003 46.2003L52.4003 49.4003L51.2003 50.8003L48.4003 53.4003L44.8003 55.8003L42.8003 56.8003H42.4003L39.6003 58.0003L37.2003 58.4003L37.0003 58.6003H36.0003L35.8003 58.8003H34.2003L34.0003 59.0003L28.6003 58.8003L28.4003 58.6003H27.4003L27.2003 58.4003L24.2003 57.8003L20.4003 56.2003L16.2003 53.4003L14.2003 51.6003L12.4003 49.6003L9.80029 45.8003L8.40029 42.8003L7.60029 40.4003V39.8003L7.20029 38.8003V37.8003L7.00029 37.6003V36.2003L6.80029 36.0003V31.8003L7.00029 31.6003V30.0003L7.20029 29.8003V29.0003L7.40029 28.8003L7.80029 26.6003L8.60029 24.4003L10.0003 21.6003L12.8003 17.6003L15.4003 15.0003L19.4003 12.2003L22.2003 10.8003L25.0003 9.80029H25.6003L27.4003 9.20029L29.8003 9.00029L30.0003 8.80029Z" fill="black"/>
<path id="Vector_2" fill-rule="evenodd" clip-rule="evenodd" d="M26.0003 21.4003L25.4003 20.8003H24.6003L21.8003 23.2003L19.2003 24.4003L16.8003 24.8003L16.4003 25.2003V26.2003L17.2003 26.8003H18.0003L18.2003 26.6003H19.0003L21.0003 26.0003L23.6003 24.6003L26.0003 22.4003V21.4003Z" fill="black"/>
<path id="Vector_3" fill-rule="evenodd" clip-rule="evenodd" d="M39.4003 21.4003V22.2003L40.2003 23.2003L42.6003 25.0003L44.6003 26.0003L46.6003 26.4003L46.8003 26.6003H48.4003L49.0003 26.0003V25.4003L48.6003 24.8003L46.4003 24.4003L43.6003 23.2003L40.8003 20.8003H40.0003L39.4003 21.4003Z" fill="black"/>
<path id="Vector_4" fill-rule="evenodd" clip-rule="evenodd" d="M21.0003 29.2002L20.4003 29.4002L19.6003 30.2002L19.4003 30.6002V32.2002L20.0003 33.2002L21.8003 33.8002L23.4003 33.0002L23.8003 32.4002L24.0003 31.2002L23.4003 29.8002L22.4003 29.2002H21.0003Z" fill="black"/>
<path id="Vector_5" fill-rule="evenodd" clip-rule="evenodd" d="M42.4002 29.2002L41.4002 30.0002L41.0002 30.8002V32.2002L42.0002 33.4002L43.0002 33.8002H43.6002L44.6002 33.4002L45.2002 32.8002L45.6002 32.0002V31.0002L45.2002 30.0002L44.8002 29.6002L44.0002 29.2002H42.4002Z" fill="black"/>
<path id="Vector_6" fill-rule="evenodd" clip-rule="evenodd" d="M21.6003 46.0002L21.8003 47.0002L23.0003 47.2002L23.4003 47.0002L24.2003 45.4002L27.0003 42.8002L29.0003 41.8002H29.6003L30.6003 41.4002H32.2003L32.8003 41.2002L33.0003 41.4002L35.2003 41.6002L37.6003 42.6002L39.0003 43.6002L40.4003 45.0002L41.8003 47.2002H42.8003L43.4003 46.4002L43.2003 45.6002L42.0003 43.8002L39.4003 41.4002L37.2003 40.2002H36.8003L35.6003 39.6002L32.8003 39.4002L32.6003 39.2002L32.2003 39.4002L29.4003 39.6002L26.0003 41.0002L23.4003 43.2002L22.2003 44.8002L21.6003 46.0002Z" fill="black"/>
</g>
</svg>
